<svg xmlns="http://www.w3.org/2000/svg" xmlns:xlink="http://www.w3.org/1999/xlink" viewBox="0 0 1920.001 99.718"><defs><style>.a{fill:#bf8e55;}.b{fill:#866539;}.c{clip-path:url(#a);}.d{fill:#ebb76a;}</style><clipPath id="a"><rect class="a" width="1920" height="70" transform="translate(-2 1010)"/></clipPath></defs><g transform="translate(2.001 -980.282)"><path class="a" d="M16357,14929H14437v-70h375.062c-.039.642-.06,1.315-.06,2a33.009,33.009,0,0,0,64.548,9.717,21.363,21.363,0,0,0,3.452.283,20.929,20.929,0,0,0,16.322-7.787,11.358,11.358,0,0,0,4.175.783,11.507,11.507,0,0,0,9.49-5H16357v70Z" transform="translate(-14439 -13849.001)"/><circle class="b" cx="8" cy="8" r="8" transform="translate(1656 1038)"/><circle class="b" cx="10.5" cy="10.5" r="10.5" transform="translate(1728 1022)"/><circle class="b" cx="8" cy="8" r="8" transform="translate(280 1012)"/><circle class="b" cx="1.5" cy="1.5" r="1.5" transform="translate(1594 1020)"/><circle class="b" cx="6.5" cy="6.5" r="6.5" transform="translate(1018 1024)"/><circle class="b" cx="3" cy="3" r="3" transform="translate(343 1012)"/><circle class="b" cx="3" cy="3" r="3" transform="translate(1680 1016)"/><circle class="b" cx="1.5" cy="1.5" r="1.5" transform="translate(1610 1059)"/><circle class="b" cx="2.5" cy="2.5" r="2.5" transform="translate(217 1038)"/><circle class="b" cx="2" cy="2" r="2" transform="translate(237 1051)"/><circle class="b" cx="1" cy="1" r="1" transform="translate(248 1036)"/><circle class="b" cx="2" cy="2" r="2" transform="translate(309 1047)"/><g class="c"><circle class="b" cx="23" cy="23" r="23" transform="translate(329 1056)"/></g><g class="c"><circle class="b" cx="23" cy="23" r="23" transform="translate(1061 992)"/></g><g transform="matrix(0.966, -0.259, 0.259, 0.966, 372.585, 994.174)"><path class="d" d="M52.92,21.236A8.938,8.938,0,0,1,42.856,11.065c.121-.814.174-.842-.5-1.384a9.108,9.108,0,0,1-3.42-6.912c-.006-.272.04-.384-.249-.515A25.47,25.47,0,1,0,53.363,21.476C53.325,21.234,53.167,21.2,52.92,21.236Z"/><path class="b" d="M65.873,55.659a6.372,6.372,0,0,0,0-9.012c-2.489-2.489-6.083-1.958-8.571.531s-2.93,5.993-.441,8.482A6.373,6.373,0,0,0,65.873,55.659Z" transform="translate(-47.21 -40.494)"/><path class="b" d="M31.79,296.774a6.373,6.373,0,0,0-9.013-9.013c-2.489,2.489-2.167,6.2.321,8.691S29.3,299.262,31.79,296.774Z" transform="translate(-16.508 -257.129)"/><circle class="b" cx="2.586" cy="2.586" r="2.586" transform="translate(36.721 31.129)"/><circle class="b" cx="2.586" cy="2.586" r="2.586" transform="translate(24.147 10.166)"/><circle class="b" cx="2.586" cy="2.586" r="2.586" transform="translate(29.665 0.161)"/><circle class="b" cx="2.586" cy="2.586" r="2.586" transform="translate(40.478 40.696)"/><circle class="b" cx="2.586" cy="2.586" r="2.586" transform="translate(19.866 34.078)"/><circle class="b" cx="2.586" cy="2.586" r="2.586" transform="translate(14.562 43.282)"/><path class="b" d="M60.726,200.366a2.586,2.586,0,1,0-2.586,2.586A2.586,2.586,0,0,0,60.726,200.366Z" transform="translate(-47.527 -177.88)"/><path class="b" d="M240.466,395.463a6.373,6.373,0,0,0-12.552,2.213c.611,3.466,3.826,5.268,7.292,4.657S241.077,398.929,240.466,395.463Z" transform="translate(-202.458 -350.936)"/><path class="b" d="M237.7,394.309a4.978,4.978,0,0,0-9.8,1.729c.477,2.707,2.988,4.115,5.7,3.637S238.174,397.017,237.7,394.309Z" transform="matrix(0.602, 0.799, -0.799, 0.602, 204.18, -398.327)"/><path class="b" d="M408.789,192.39c-.038-.242-.2-.275-.444-.24a8.907,8.907,0,0,1-7.1-2.116,6.373,6.373,0,0,0,3.021,11.985,4.871,4.871,0,0,0,4.715-3.142c.079-.815.12-1.642.12-2.478A25.642,25.642,0,0,0,408.789,192.39Z" transform="translate(-355.425 -170.914)"/><path class="b" d="M329.956,53.441a8.978,8.978,0,0,1,.1-1.322c.121-.814.174-.842-.5-1.384a9.126,9.126,0,0,1-3.194-5.088,6.152,6.152,0,0,0-2.454,1.523,6.372,6.372,0,0,0,7.04,10.353A8.892,8.892,0,0,1,329.956,53.441Z" transform="translate(-287.199 -41.053)"/></g></g></svg>